Coordinates
version=1
nRows=17
nColumns=36
inDegrees=yes

Units are S.I. units (second, meters, Newtons, ...)
If the header above contains a line with 'inDegrees', this indicates whether rotational values are in degrees (yes) or radians (no).

endheader
time	pelvis_tilt	pelvis_list	pelvis_rotation	pelvis_tx	pelvis_ty	pelvis_tz	hip_flexion_r	hip_adduction_r	hip_rotation_r	knee_angle_r	knee_angle_r_beta	ankle_angle_r	subtalar_angle_r	mtp_angle_r	hip_flexion_l	hip_adduction_l	hip_rotation_l	knee_angle_l	knee_angle_l_beta	ankle_angle_l	subtalar_angle_l	mtp_angle_l	lumbar_extension	lumbar_bending	lumbar_rotation	arm_flex_r	arm_add_r	arm_rot_r	elbow_flex_r	pro_sup_r	arm_flex_l	arm_add_l	arm_rot_l	elbow_flex_l	pro_sup_l
      4.00000000	    -30.85441261	     -9.16467171	      7.92565597	      0.58424355	      0.68117675	      0.18172946	     87.93110580	     -6.87509296	     -5.73802636	     84.04538882	      1.46686876	     29.29669053	    -20.34163837	     -7.49999987	     92.21927999	    -16.07191347	      1.31860558	     83.29311902	      1.45373917	     21.15519090	    -24.66525222	     -7.49999987	    -32.45295786	     -5.52323274	      0.96671143	     35.39451820	    -12.37858507	     -6.00878951	     49.61793510	     58.25386664	     56.26317066	    -31.08184861	     21.03069556	     47.60598699	     66.98789869
      4.01666670	    -31.89664587	     -9.58615833	      7.92168550	      0.57981746	      0.67472723	      0.18325386	     90.21908447	     -6.71093700	     -5.70747071	     84.81158191	      1.48024135	     28.90225704	    -20.62357678	     -7.49999987	     94.73421213	    -15.83716272	      2.10459956	     83.90304111	      1.46438432	     19.80129877	    -25.47663543	     -7.49999987	    -32.66677907	     -5.43615999	      0.93524055	     36.90784373	    -12.62279414	     -4.91614701	     52.36620942	     58.94881401	     58.36086891	    -32.64299258	     21.96871986	     50.04623363	     67.03191242
      4.03333330	    -32.74141889	     -9.97152529	      7.96409806	      0.57988708	      0.67392811	      0.18354643	     91.91958355	     -6.56825927	     -5.67488532	     85.18204126	      1.48670708	     28.42471537	    -20.94248180	     -7.49999987	     96.61825685	    -15.54151764	      2.79553677	     84.21771801	      1.46987647	     18.67910167	    -25.96497768	     -7.49999987	    -32.75690309	     -5.34937249	      0.95045013	     37.50294980	    -12.73282958	     -4.12534229	     54.27730566	     59.67176593	     59.44480396	    -33.73217898	     22.43158926	     51.50435031	     67.17296384
      4.05000000	    -33.18522098	    -10.22126225	      8.05660908	      0.57532768	      0.66851546	      0.18513997	     92.99176639	     -6.41950826	     -5.51733401	     85.40217152	      1.49054908	     27.95047128	    -21.22510455	     -7.49999987	     97.74933217	    -15.23644385	      3.34055417	     84.40557580	      1.47315520	     17.76133186	    -26.57132282	     -7.49999987	    -32.82637669	     -5.31578405	      0.84760359	     37.61657041	    -12.84727150	     -3.63160339	     56.11551109	     60.44789761	     59.91463689	    -34.67583647	     22.41139908	     52.65893660	     67.08310177
      4.06666670	    -33.08561291	    -10.25916892	      8.23189489	      0.58026982	      0.66877814	      0.18316347	     93.20346019	     -6.26516462	     -5.23163344	     85.43647637	      1.49114781	     27.88780843	    -21.22332257	     -7.49999987	     97.89949595	    -14.91162789	      3.73205848	     84.42986934	      1.47357921	     17.67970612	    -26.54632979	     -7.49999987	    -33.01233655	     -5.46557814	      0.91921272	     37.52290283	    -12.91753642	     -3.61588844	     56.27041040	     60.52233818	     59.79186491	    -34.82288011	     22.35322963	     52.67881988	     67.08443860
      4.08333330	    -33.25948392	    -10.46469877	      8.56559708	      0.57993533	      0.66994258	      0.18166685	     93.39885055	     -6.32535003	     -5.07981783	     85.20264572	      1.48706670	     27.01382384	    -22.19423549	     -7.49999987	     98.10347820	    -14.24672809	      4.19127200	     84.17456484	      1.46912330	     16.38844760	    -27.65902754	     -7.49999987	    -33.15500149	     -4.97642717	      0.87393424	     36.39685749	    -13.42410029	     -3.36304570	     59.55812127	     61.65542474	     58.58400382	    -35.09420852	     20.93732983	     54.11695674	     66.75188294
      4.10000000	    -33.10505948	    -10.59524467	      8.65992966	      0.57938211	      0.66787285	      0.18202929	     93.19762729	     -6.09730399	     -4.91513831	     84.93553578	      1.48240475	     26.67760095	    -22.35256564	     -7.49999987	     97.90670448	    -14.05372330	      4.54072595	     84.06680893	      1.46724261	     16.60618655	    -27.49358053	     -7.49999987	    -33.48762088	     -4.60552792	      0.58701958	     35.83212501	    -12.85546507	     -5.27150138	     61.19261011	     77.85177430	     55.62004662	    -35.13612756	     15.55708663	     56.37428400	     70.15722529
      4.11666670	    -32.79202106	    -10.55239583	      8.81539121	      0.57860701	      0.67116786	      0.18171635	     92.69345158	     -5.88158257	     -4.60204433	     84.53677756	      1.47544511	     26.36139273	    -22.71907497	     -7.49999987	     97.31238630	    -13.79472949	      4.71967775	     83.76308934	      1.46194170	     16.43229935	    -27.68702986	     -7.49999987	    -33.70466785	     -4.50798124	      0.74061819	     35.05029160	    -13.09566431	     -5.34074480	     62.04046523	     76.91071729	     54.46836506	    -34.82934694	     14.82955482	     56.23469154	     69.34437699
      4.13333330	    -32.55890216	    -10.43191549	      8.97272557	      0.57710087	      0.67504161	      0.17723917	     92.10085792	     -5.76042964	     -4.24424582	     83.91210508	      1.46454252	     26.14960312	    -22.72653474	     -7.49999987	     96.57073710	    -13.51355038	      4.67633198	     83.23519781	      1.45272826	     16.45341728	    -27.66276320	     -7.49999987	    -33.77910900	     -4.48821776	      0.88258939	     34.53332123	    -13.38923154	     -5.43627651	     61.92532446	     76.98599749	     53.21086611	    -34.38402336	     14.91787033	     55.97261014	     69.34651159
      4.15000000	    -32.15461733	    -10.50798154	      9.17807715	      0.57141284	      0.68053286	      0.17985882	     91.22661453	     -5.62036249	     -4.08259861	     83.00084197	      1.44863797	     24.92125382	    -23.62477751	     -7.49999987	     95.73591228	    -13.19159627	      4.82008138	     82.55272854	      1.44081692	     16.23708282	    -27.84873762	     -7.49999987	    -34.27833216	     -4.19194562	      1.48790739	     34.42898030	    -14.16900565	     -5.59437474	     61.91709396	     78.62749617	     52.80246509	    -32.37717682	     12.62194612	     54.98399984	     69.44978652
      4.16666670	    -31.84678866	    -10.49622943	      9.29229673	      0.57113519	      0.68699236	      0.18590507	     90.26609870	     -5.32572546	     -3.90993322	     81.94867847	      1.43027426	     24.32525666	    -24.01386234	     -7.49999987	     94.80138665	    -13.10151547	      4.80609195	     81.64328387	      1.42494412	     15.90881562	    -27.82335268	     -7.49999987	    -34.67797316	     -4.24265426	      1.56766475	     34.58227109	    -14.29296123	     -5.62233529	     61.28073058	     79.28718448	     52.34506325	    -32.32234770	     12.39755212	     54.33766477	     69.58979566
      4.18333330	    -31.78698211	    -10.51928883	      9.44858199	      0.56536663	      0.69294388	      0.18195723	     89.44455892	     -5.24032001	     -3.90810506	     80.62253415	      1.40712867	     23.52494882	    -24.35011015	     -7.49999987	     93.96126077	    -12.95378879	      4.66299230	     80.38433832	      1.40297137	     15.55142924	    -27.70929824	     -7.49999987	    -34.54548832	     -3.95149945	      1.14795482	     35.21629644	    -14.60176613	     -4.72589144	     59.00457856	     85.12552848	     51.37581347	    -32.18397464	     11.52097346	     54.49147655	     71.13290890
      4.20000000	    -31.68160310	    -10.47812670	      9.60133735	      0.55968146	      0.69467067	      0.18493032	     88.76429948	     -5.21926497	     -3.95196546	     79.41984576	      1.38613780	     22.75299704	    -24.49825421	     -7.49999987	     93.21322038	    -12.87164826	      4.43306843	     79.19118709	      1.38214695	     15.08079869	    -27.66150449	     -7.49999987	    -34.21001786	     -3.82333081	      1.39707653	     35.22127902	    -15.41566946	     -4.30128176	     58.25029305	     85.27668773	     51.09700234	    -31.65972488	     12.08703354	     54.69870879	     71.18562375
      4.21666670	    -31.46651213	    -10.47549204	      9.68647866	      0.56009398	      0.70493790	      0.18402716	     87.77325424	     -5.13182885	     -4.14265385	     77.93026480	      1.36013971	     21.82919774	    -24.76262164	     -7.49999987	     92.21236107	    -12.90323865	      4.18396310	     77.77004700	      1.35734338	     14.51563877	    -27.56589760	     -7.49999987	    -34.04512733	     -3.64176147	      1.53837573	     35.38315383	    -15.82235728	     -3.17029620	     56.61934038	     82.57267898	     50.53301565	    -31.11686865	     12.67158010	     53.47522095	     69.53300590
      4.23333330	    -31.33858546	    -10.39285748	      9.78893421	      0.56498803	      0.70882840	      0.18129941	     86.79056648	     -5.20634366	     -4.32906007	     76.51304725	      1.33540460	     21.50997833	    -24.60069659	     -7.49999987	     91.11970900	    -12.90241323	      3.79138179	     76.31954767	      1.33202739	     14.17554066	    -27.23409227	     -7.49999987	    -33.96238964	     -3.49543952	      1.58235662	     34.12795959	    -15.99418147	     -3.15385970	     56.21171301	     82.61893065	     48.64552380	    -30.69745190	     13.01242497	     53.03727945	     69.54481234
      4.25000000	    -30.94533476	    -10.50520415	      9.97072187	      0.55982936	      0.71645682	      0.18343742	     85.38527681	     -5.28909070	     -4.82611313	     74.80842062	      1.30565325	     20.48377084	    -24.91733337	     -7.49999987	     89.85541117	    -12.83036921	      3.71466870	     74.77739991	      1.30511183	     13.28097222	    -27.24464926	     -7.49999987	    -33.86451491	     -3.01967500	      1.69516460	     33.42593434	    -16.35161439	     -3.19990361	     55.12637342	     82.81642379	     47.63287837	    -30.22476717	     13.07443728	     52.21976283	     69.50952871
      4.26666670	    -30.31710990	    -10.44468273	     10.04959478	      0.57023307	      0.72700010	      0.17886941	     83.41340515	     -5.22322679	     -5.19221821	     72.86571955	      1.27174672	     19.82558371	    -25.29160607	     -7.49999987	     87.93153804	    -12.86452513	      3.49689476	     73.05824856	      1.27510698	     12.64045880	    -27.35609437	     -7.49999987	    -33.68582264	     -2.77091424	      2.10501674	     31.53658453	    -16.42227566	     -3.58921907	     53.53954441	     82.99098430	     45.44495901	    -29.20522218	     12.50550883	     51.28059418	     69.33651299
